<svg viewBox="0 0 1170 810" xmlns="http://www.w3.org/2000/svg"><path d="m0 0h1170v810h-1170z" fill="#030"/><path d="m45 45h1080v720h-1080z" fill="#060" stroke="#fff" stroke-width="2"/><g fill="#030"><path d="m47 90h1077v45h-1077z" opacity=".5"/><path d="m47 180h1077v45h-1077z" opacity=".5"/><path d="m47 270h1077v45h-1077z" opacity=".5"/><path d="m47 360h1077v45h-1077z" opacity=".5"/><path d="m47 450h1077v45h-1077z" opacity=".5"/><path d="m47 540h1077v45h-1077z" opacity=".5"/><path d="m47 630h1077v45h-1077z" opacity=".5"/><path d="m47 720h1077v45h-1077z" opacity=".5"/><path d="m45 47h45v715h-45z" opacity=".5"/><path d="m135 47h45v715h-45z" opacity=".5"/><path d="m225 47h45v715h-45z" opacity=".5"/><path d="m315 47h45v715h-45z" opacity=".5"/><path d="m405 47h45v715h-45z" opacity=".5"/><path d="m495 47h45v715h-45z" opacity=".5"/><path d="m585 47h45v715h-45z" opacity=".5"/><path d="m675 47h45v715h-45z" opacity=".5"/><path d="m765 47h45v715h-45z" opacity=".5"/><path d="m855 47h45v715h-45z" opacity=".5"/><path d="m945 47h45v715h-45z" opacity=".5"/><path d="m1035 47h45v715h-45z" opacity=".5"/></g><circle cx="585" cy="405" fill="none" r="90" stroke="#fff" stroke-width="2"/><circle cx="585" cy="405" fill="#fff" r="4" stroke="#fff"/><circle cx="225" cy="405" fill="#fff" r="2" stroke="#fff"/><circle cx="945" cy="405" fill="#fff" r="2" stroke="#fff"/><path d="m0 270h45v270h-45z" fill="none" stroke="#fff" stroke-width="2"/><path d="m1125 270h45v270h-45z" fill="none" stroke="#fff" stroke-width="2"/><path d="m45 135h270v540h-270z" fill="none" stroke="#fff" stroke-width="2"/><path d="m1125 135h-270v540h270z" fill="none" stroke="#fff" stroke-width="2"/><path d="m315 315a90 105 0 0 1 0 180z" fill="none" stroke="#fff" stroke-width="2"/><path d="m855 315a90 105 0 0 0 0 180z" fill="none" stroke="#fff" stroke-width="2"/><path d="m45 60a15 15 0 0 0 15-15h-15z" fill="none" stroke="#fff" stroke-width="2"/><path d="m60 765a15 15 0 0 0 -15-15v15z" fill="none" stroke="#fff" stroke-width="2"/><path d="m1125 750a15 15 0 0 0 -15 15h15z" fill="none" stroke="#fff" stroke-width="2"/><path d="m1110 45a15 15 0 0 0 15 15v-15z" fill="none" stroke="#fff" stroke-width="2"/><path d="m585 46v718" stroke="#fff" stroke-width="2"/></svg>