<svg enable-background="new 0 0 633.48 633.48" height="633.48" viewBox="0 0 633.48 633.48" width="633.48" xmlns="http://www.w3.org/2000/svg"><path d="m540.709 92.77c-59.823-59.825-139.365-92.77-223.969-92.77s-164.145 32.945-223.969 92.77c-59.824 59.824-92.771 139.367-92.771 223.97s32.947 164.144 92.771 223.968 139.366 92.772 223.969 92.772 164.146-32.948 223.969-92.772c59.824-59.824 92.771-139.364 92.771-223.968s-32.946-164.146-92.771-223.97zm-216.139 14.784 92.539-27.02 92.733 67.617 2.89 96.052-91.589 40.3-96.573-70.166zm-119.444 191.105 36.385 111.981-60.048 63.582-93.034-44.109-24.951-96.114 51.208-75.133zm-84.563-53.224 2.989-99.337 92.484-65.661 93.871 27.406v105.771l-98.693 71.705zm127.166 179.978h139.443l.875-2.691 57.484 60.866-47.553 75.862h-161.485l-46.018-73.414zm207.939 47.549-62.458-66.131 35.646-109.704 89.139-39.22 52.927 77.658-26.537 95.333zm107.361-320.604-47.449-18.172-93.288-68.021-28.707-35.505c70.119 18.851 130.037 62.849 169.444 121.698zm-323.13-121.701-28.189 34.866-99.934 70.951-41.275 15.807c39.408-58.813 99.308-102.779 169.398-121.624zm-218.802 268.017 30.053 46.2 24.612 94.803-2.161 46.039c-33.433-47.958-53.071-106.213-53.071-168.976 0-6.069.206-12.086.567-18.066zm169.713 286.132 54.874-10.691h143.104l54.173 10.557c-38.312 18.121-81.101 28.28-126.221 28.28-45.007-.001-87.691-10.108-125.93-28.146zm369.998-100.425-2.321-49.462 26.087-93.723 27.797-42.729c.37 6.046.58 12.135.58 18.272 0 62.183-19.275 119.939-52.143 167.642z"/></svg>